<mxfile host="Electron" modified="2025-06-21T14:59:45.064Z" agent="Mozilla/5.0 (Windows NT 10.0; Win64; x64) AppleWebKit/537.36 (KHTML, like Gecko) draw.io/22.1.16 Chrome/120.0.6099.109 Electron/28.1.0 Safari/537.36" etag="D5dzFh9pxmAmQ1JwUJM6" version="22.1.16" type="device" pages="2">
  <diagram name="Cout" id="q3HYORveaEYwvlk2VmZ3">
    <mxGraphModel dx="2206" dy="1298" grid="1" gridSize="10" guides="1" tooltips="1" connect="1" arrows="1" fold="1" page="1" pageScale="1" pageWidth="850" pageHeight="1100" math="0" shadow="0">
      <root>
        <mxCell id="0" />
        <mxCell id="1" parent="0" />
        <mxCell id="y96da0rpGYS-JTHUumgM-9" value="" style="triangle;whiteSpace=wrap;html=1;" parent="1" vertex="1">
          <mxGeometry x="320" y="300" width="60" height="80" as="geometry" />
        </mxCell>
        <mxCell id="y96da0rpGYS-JTHUumgM-51" style="edgeStyle=orthogonalEdgeStyle;rounded=0;orthogonalLoop=1;jettySize=auto;html=1;exitX=0.5;exitY=0;exitDx=0;exitDy=0;" parent="1" source="y96da0rpGYS-JTHUumgM-10" edge="1">
          <mxGeometry relative="1" as="geometry">
            <mxPoint x="350.1428571428571" y="400" as="targetPoint" />
          </mxGeometry>
        </mxCell>
        <mxCell id="y96da0rpGYS-JTHUumgM-56" style="edgeStyle=orthogonalEdgeStyle;rounded=0;orthogonalLoop=1;jettySize=auto;html=1;exitX=0;exitY=0.5;exitDx=0;exitDy=0;entryX=0.5;entryY=0;entryDx=0;entryDy=0;" parent="1" source="y96da0rpGYS-JTHUumgM-10" target="y96da0rpGYS-JTHUumgM-31" edge="1">
          <mxGeometry relative="1" as="geometry" />
        </mxCell>
        <mxCell id="y96da0rpGYS-JTHUumgM-10" value="" style="triangle;whiteSpace=wrap;html=1;direction=west;" parent="1" vertex="1">
          <mxGeometry x="320" y="300" width="60" height="80" as="geometry" />
        </mxCell>
        <mxCell id="y96da0rpGYS-JTHUumgM-49" style="edgeStyle=orthogonalEdgeStyle;rounded=0;orthogonalLoop=1;jettySize=auto;html=1;exitX=0.5;exitY=0;exitDx=0;exitDy=0;" parent="1" source="y96da0rpGYS-JTHUumgM-15" edge="1">
          <mxGeometry relative="1" as="geometry">
            <mxPoint x="350.1428571428571" y="280" as="targetPoint" />
          </mxGeometry>
        </mxCell>
        <mxCell id="y96da0rpGYS-JTHUumgM-15" value="" style="ellipse;whiteSpace=wrap;html=1;aspect=fixed;" parent="1" vertex="1">
          <mxGeometry x="345" y="310" width="10" height="10" as="geometry" />
        </mxCell>
        <mxCell id="y96da0rpGYS-JTHUumgM-35" style="edgeStyle=orthogonalEdgeStyle;rounded=0;orthogonalLoop=1;jettySize=auto;html=1;exitX=0;exitY=0.5;exitDx=0;exitDy=0;" parent="1" source="y96da0rpGYS-JTHUumgM-16" edge="1">
          <mxGeometry relative="1" as="geometry">
            <mxPoint x="70" y="239.71428571428578" as="targetPoint" />
          </mxGeometry>
        </mxCell>
        <mxCell id="y96da0rpGYS-JTHUumgM-16" value="" style="triangle;whiteSpace=wrap;html=1;" parent="1" vertex="1">
          <mxGeometry x="140" y="200" width="60" height="80" as="geometry" />
        </mxCell>
        <mxCell id="y96da0rpGYS-JTHUumgM-42" style="edgeStyle=orthogonalEdgeStyle;rounded=0;orthogonalLoop=1;jettySize=auto;html=1;exitX=0;exitY=0.5;exitDx=0;exitDy=0;entryX=0.5;entryY=0;entryDx=0;entryDy=0;" parent="1" source="y96da0rpGYS-JTHUumgM-17" target="y96da0rpGYS-JTHUumgM-41" edge="1">
          <mxGeometry relative="1" as="geometry" />
        </mxCell>
        <mxCell id="y96da0rpGYS-JTHUumgM-17" value="" style="triangle;whiteSpace=wrap;html=1;direction=west;" parent="1" vertex="1">
          <mxGeometry x="140" y="200" width="60" height="80" as="geometry" />
        </mxCell>
        <mxCell id="y96da0rpGYS-JTHUumgM-37" style="edgeStyle=orthogonalEdgeStyle;rounded=0;orthogonalLoop=1;jettySize=auto;html=1;exitX=0.5;exitY=0;exitDx=0;exitDy=0;" parent="1" source="y96da0rpGYS-JTHUumgM-18" edge="1">
          <mxGeometry relative="1" as="geometry">
            <mxPoint x="169.5714285714289" y="160" as="targetPoint" />
          </mxGeometry>
        </mxCell>
        <mxCell id="y96da0rpGYS-JTHUumgM-18" value="" style="ellipse;whiteSpace=wrap;html=1;aspect=fixed;" parent="1" vertex="1">
          <mxGeometry x="165" y="210" width="10" height="10" as="geometry" />
        </mxCell>
        <mxCell id="y96da0rpGYS-JTHUumgM-46" style="edgeStyle=orthogonalEdgeStyle;rounded=0;orthogonalLoop=1;jettySize=auto;html=1;exitX=0;exitY=0.5;exitDx=0;exitDy=0;" parent="1" source="y96da0rpGYS-JTHUumgM-19" edge="1">
          <mxGeometry relative="1" as="geometry">
            <mxPoint x="90" y="500.28571428571433" as="targetPoint" />
          </mxGeometry>
        </mxCell>
        <mxCell id="y96da0rpGYS-JTHUumgM-19" value="" style="triangle;whiteSpace=wrap;html=1;" parent="1" vertex="1">
          <mxGeometry x="150" y="460" width="60" height="80" as="geometry" />
        </mxCell>
        <mxCell id="y96da0rpGYS-JTHUumgM-43" style="edgeStyle=orthogonalEdgeStyle;rounded=0;orthogonalLoop=1;jettySize=auto;html=1;exitX=0;exitY=0.5;exitDx=0;exitDy=0;entryX=0.5;entryY=1;entryDx=0;entryDy=0;" parent="1" source="y96da0rpGYS-JTHUumgM-20" target="y96da0rpGYS-JTHUumgM-41" edge="1">
          <mxGeometry relative="1" as="geometry" />
        </mxCell>
        <mxCell id="y96da0rpGYS-JTHUumgM-71" style="edgeStyle=orthogonalEdgeStyle;rounded=0;orthogonalLoop=1;jettySize=auto;html=1;exitX=0.5;exitY=0;exitDx=0;exitDy=0;" parent="1" source="y96da0rpGYS-JTHUumgM-20" edge="1">
          <mxGeometry relative="1" as="geometry">
            <mxPoint x="180" y="560" as="targetPoint" />
          </mxGeometry>
        </mxCell>
        <mxCell id="y96da0rpGYS-JTHUumgM-20" value="" style="triangle;whiteSpace=wrap;html=1;direction=west;" parent="1" vertex="1">
          <mxGeometry x="150" y="460" width="60" height="80" as="geometry" />
        </mxCell>
        <mxCell id="y96da0rpGYS-JTHUumgM-69" style="edgeStyle=orthogonalEdgeStyle;rounded=0;orthogonalLoop=1;jettySize=auto;html=1;exitX=0.5;exitY=0;exitDx=0;exitDy=0;" parent="1" source="y96da0rpGYS-JTHUumgM-21" edge="1">
          <mxGeometry relative="1" as="geometry">
            <mxPoint x="180" y="440" as="targetPoint" />
          </mxGeometry>
        </mxCell>
        <mxCell id="y96da0rpGYS-JTHUumgM-21" value="" style="ellipse;whiteSpace=wrap;html=1;aspect=fixed;" parent="1" vertex="1">
          <mxGeometry x="175" y="470" width="10" height="10" as="geometry" />
        </mxCell>
        <mxCell id="y96da0rpGYS-JTHUumgM-59" style="edgeStyle=orthogonalEdgeStyle;rounded=0;orthogonalLoop=1;jettySize=auto;html=1;exitX=0.5;exitY=1;exitDx=0;exitDy=0;" parent="1" source="y96da0rpGYS-JTHUumgM-22" edge="1">
          <mxGeometry relative="1" as="geometry">
            <mxPoint x="375" y="950" as="targetPoint" />
          </mxGeometry>
        </mxCell>
        <mxCell id="y96da0rpGYS-JTHUumgM-22" value="" style="triangle;whiteSpace=wrap;html=1;" parent="1" vertex="1">
          <mxGeometry x="345" y="820" width="60" height="80" as="geometry" />
        </mxCell>
        <mxCell id="y96da0rpGYS-JTHUumgM-82" style="edgeStyle=orthogonalEdgeStyle;rounded=0;orthogonalLoop=1;jettySize=auto;html=1;exitX=0;exitY=0.5;exitDx=0;exitDy=0;entryX=0.5;entryY=1;entryDx=0;entryDy=0;" parent="1" source="y96da0rpGYS-JTHUumgM-23" target="y96da0rpGYS-JTHUumgM-31" edge="1">
          <mxGeometry relative="1" as="geometry" />
        </mxCell>
        <mxCell id="y96da0rpGYS-JTHUumgM-23" value="" style="triangle;whiteSpace=wrap;html=1;direction=west;" parent="1" vertex="1">
          <mxGeometry x="345" y="820" width="60" height="80" as="geometry" />
        </mxCell>
        <mxCell id="y96da0rpGYS-JTHUumgM-57" style="edgeStyle=orthogonalEdgeStyle;rounded=0;orthogonalLoop=1;jettySize=auto;html=1;exitX=0.5;exitY=0;exitDx=0;exitDy=0;" parent="1" source="y96da0rpGYS-JTHUumgM-24" edge="1">
          <mxGeometry relative="1" as="geometry">
            <mxPoint x="375" y="770" as="targetPoint" />
          </mxGeometry>
        </mxCell>
        <mxCell id="y96da0rpGYS-JTHUumgM-24" value="" style="ellipse;whiteSpace=wrap;html=1;aspect=fixed;" parent="1" vertex="1">
          <mxGeometry x="370" y="830" width="10" height="10" as="geometry" />
        </mxCell>
        <mxCell id="y96da0rpGYS-JTHUumgM-28" value="" style="triangle;whiteSpace=wrap;html=1;" parent="1" vertex="1">
          <mxGeometry x="175" y="980" width="60" height="80" as="geometry" />
        </mxCell>
        <mxCell id="y96da0rpGYS-JTHUumgM-63" style="edgeStyle=orthogonalEdgeStyle;rounded=0;orthogonalLoop=1;jettySize=auto;html=1;exitX=0;exitY=0.5;exitDx=0;exitDy=0;entryX=0.5;entryY=1;entryDx=0;entryDy=0;" parent="1" source="y96da0rpGYS-JTHUumgM-29" target="y96da0rpGYS-JTHUumgM-61" edge="1">
          <mxGeometry relative="1" as="geometry" />
        </mxCell>
        <mxCell id="y96da0rpGYS-JTHUumgM-67" style="edgeStyle=orthogonalEdgeStyle;rounded=0;orthogonalLoop=1;jettySize=auto;html=1;exitX=1;exitY=0.5;exitDx=0;exitDy=0;" parent="1" source="y96da0rpGYS-JTHUumgM-29" edge="1">
          <mxGeometry relative="1" as="geometry">
            <mxPoint x="120" y="1020" as="targetPoint" />
          </mxGeometry>
        </mxCell>
        <mxCell id="y96da0rpGYS-JTHUumgM-81" style="edgeStyle=orthogonalEdgeStyle;rounded=0;orthogonalLoop=1;jettySize=auto;html=1;exitX=0.5;exitY=0;exitDx=0;exitDy=0;" parent="1" source="y96da0rpGYS-JTHUumgM-29" edge="1">
          <mxGeometry relative="1" as="geometry">
            <mxPoint x="205" y="1090" as="targetPoint" />
          </mxGeometry>
        </mxCell>
        <mxCell id="y96da0rpGYS-JTHUumgM-29" value="" style="triangle;whiteSpace=wrap;html=1;direction=west;" parent="1" vertex="1">
          <mxGeometry x="175" y="980" width="60" height="80" as="geometry" />
        </mxCell>
        <mxCell id="y96da0rpGYS-JTHUumgM-78" style="edgeStyle=orthogonalEdgeStyle;rounded=0;orthogonalLoop=1;jettySize=auto;html=1;exitX=0.5;exitY=0;exitDx=0;exitDy=0;" parent="1" source="y96da0rpGYS-JTHUumgM-30" edge="1">
          <mxGeometry relative="1" as="geometry">
            <mxPoint x="205" y="940" as="targetPoint" />
          </mxGeometry>
        </mxCell>
        <mxCell id="y96da0rpGYS-JTHUumgM-30" value="" style="ellipse;whiteSpace=wrap;html=1;aspect=fixed;" parent="1" vertex="1">
          <mxGeometry x="200" y="990" width="10" height="10" as="geometry" />
        </mxCell>
        <mxCell id="y96da0rpGYS-JTHUumgM-32" style="edgeStyle=orthogonalEdgeStyle;rounded=0;orthogonalLoop=1;jettySize=auto;html=1;exitX=1;exitY=0.5;exitDx=0;exitDy=0;" parent="1" source="y96da0rpGYS-JTHUumgM-31" edge="1">
          <mxGeometry relative="1" as="geometry">
            <mxPoint x="650" y="595.4285714285716" as="targetPoint" />
          </mxGeometry>
        </mxCell>
        <mxCell id="y96da0rpGYS-JTHUumgM-31" value="" style="ellipse;whiteSpace=wrap;html=1;aspect=fixed;" parent="1" vertex="1">
          <mxGeometry x="550" y="570" width="50" height="50" as="geometry" />
        </mxCell>
        <mxCell id="y96da0rpGYS-JTHUumgM-33" value="Cout" style="text;html=1;align=center;verticalAlign=middle;resizable=0;points=[];autosize=1;strokeColor=none;fillColor=none;" parent="1" vertex="1">
          <mxGeometry x="645" y="578" width="50" height="30" as="geometry" />
        </mxCell>
        <mxCell id="y96da0rpGYS-JTHUumgM-36" value="B" style="text;html=1;align=center;verticalAlign=middle;resizable=0;points=[];autosize=1;strokeColor=none;fillColor=none;" parent="1" vertex="1">
          <mxGeometry x="40" y="225" width="30" height="30" as="geometry" />
        </mxCell>
        <mxCell id="y96da0rpGYS-JTHUumgM-38" value="A" style="text;html=1;align=center;verticalAlign=middle;resizable=0;points=[];autosize=1;strokeColor=none;fillColor=none;" parent="1" vertex="1">
          <mxGeometry x="155" y="138" width="30" height="30" as="geometry" />
        </mxCell>
        <mxCell id="y96da0rpGYS-JTHUumgM-39" value="~A" style="text;html=1;align=center;verticalAlign=middle;resizable=0;points=[];autosize=1;strokeColor=none;fillColor=none;rotation=0;" parent="1" vertex="1">
          <mxGeometry x="150" y="290" width="40" height="30" as="geometry" />
        </mxCell>
        <mxCell id="y96da0rpGYS-JTHUumgM-40" style="edgeStyle=orthogonalEdgeStyle;rounded=0;orthogonalLoop=1;jettySize=auto;html=1;exitX=0.5;exitY=1;exitDx=0;exitDy=0;entryX=0.504;entryY=-0.057;entryDx=0;entryDy=0;entryPerimeter=0;" parent="1" source="y96da0rpGYS-JTHUumgM-16" target="y96da0rpGYS-JTHUumgM-39" edge="1">
          <mxGeometry relative="1" as="geometry" />
        </mxCell>
        <mxCell id="y96da0rpGYS-JTHUumgM-48" style="edgeStyle=orthogonalEdgeStyle;rounded=0;orthogonalLoop=1;jettySize=auto;html=1;exitX=1;exitY=0.5;exitDx=0;exitDy=0;entryX=1;entryY=0.5;entryDx=0;entryDy=0;" parent="1" source="y96da0rpGYS-JTHUumgM-41" target="y96da0rpGYS-JTHUumgM-10" edge="1">
          <mxGeometry relative="1" as="geometry" />
        </mxCell>
        <mxCell id="y96da0rpGYS-JTHUumgM-41" value="" style="ellipse;whiteSpace=wrap;html=1;aspect=fixed;" parent="1" vertex="1">
          <mxGeometry x="230" y="330" width="20" height="20" as="geometry" />
        </mxCell>
        <mxCell id="y96da0rpGYS-JTHUumgM-47" value="1" style="text;html=1;align=center;verticalAlign=middle;resizable=0;points=[];autosize=1;strokeColor=none;fillColor=none;" parent="1" vertex="1">
          <mxGeometry x="60" y="485" width="30" height="30" as="geometry" />
        </mxCell>
        <mxCell id="y96da0rpGYS-JTHUumgM-50" value="~Cin" style="text;html=1;align=center;verticalAlign=middle;resizable=0;points=[];autosize=1;strokeColor=none;fillColor=none;" parent="1" vertex="1">
          <mxGeometry x="325" y="258" width="50" height="30" as="geometry" />
        </mxCell>
        <mxCell id="y96da0rpGYS-JTHUumgM-52" value="Cin" style="text;html=1;align=center;verticalAlign=middle;resizable=0;points=[];autosize=1;strokeColor=none;fillColor=none;" parent="1" vertex="1">
          <mxGeometry x="330" y="398" width="40" height="30" as="geometry" />
        </mxCell>
        <mxCell id="y96da0rpGYS-JTHUumgM-53" value="" style="triangle;whiteSpace=wrap;html=1;" parent="1" vertex="1">
          <mxGeometry x="165" y="670" width="60" height="80" as="geometry" />
        </mxCell>
        <mxCell id="y96da0rpGYS-JTHUumgM-62" style="edgeStyle=orthogonalEdgeStyle;rounded=0;orthogonalLoop=1;jettySize=auto;html=1;exitX=0;exitY=0.5;exitDx=0;exitDy=0;entryX=0.5;entryY=0;entryDx=0;entryDy=0;" parent="1" source="y96da0rpGYS-JTHUumgM-54" target="y96da0rpGYS-JTHUumgM-61" edge="1">
          <mxGeometry relative="1" as="geometry" />
        </mxCell>
        <mxCell id="y96da0rpGYS-JTHUumgM-65" style="edgeStyle=orthogonalEdgeStyle;rounded=0;orthogonalLoop=1;jettySize=auto;html=1;exitX=1;exitY=0.5;exitDx=0;exitDy=0;" parent="1" source="y96da0rpGYS-JTHUumgM-54" edge="1">
          <mxGeometry relative="1" as="geometry">
            <mxPoint x="120" y="710" as="targetPoint" />
          </mxGeometry>
        </mxCell>
        <mxCell id="y96da0rpGYS-JTHUumgM-76" style="edgeStyle=orthogonalEdgeStyle;rounded=0;orthogonalLoop=1;jettySize=auto;html=1;exitX=0.5;exitY=0;exitDx=0;exitDy=0;" parent="1" source="y96da0rpGYS-JTHUumgM-54" edge="1">
          <mxGeometry relative="1" as="geometry">
            <mxPoint x="195" y="770" as="targetPoint" />
          </mxGeometry>
        </mxCell>
        <mxCell id="y96da0rpGYS-JTHUumgM-54" value="" style="triangle;whiteSpace=wrap;html=1;direction=west;" parent="1" vertex="1">
          <mxGeometry x="165" y="670" width="60" height="80" as="geometry" />
        </mxCell>
        <mxCell id="y96da0rpGYS-JTHUumgM-74" style="edgeStyle=orthogonalEdgeStyle;rounded=0;orthogonalLoop=1;jettySize=auto;html=1;exitX=0.5;exitY=0;exitDx=0;exitDy=0;" parent="1" source="y96da0rpGYS-JTHUumgM-55" edge="1">
          <mxGeometry relative="1" as="geometry">
            <mxPoint x="195" y="640" as="targetPoint" />
          </mxGeometry>
        </mxCell>
        <mxCell id="y96da0rpGYS-JTHUumgM-55" value="" style="ellipse;whiteSpace=wrap;html=1;aspect=fixed;" parent="1" vertex="1">
          <mxGeometry x="190" y="680" width="10" height="10" as="geometry" />
        </mxCell>
        <mxCell id="y96da0rpGYS-JTHUumgM-58" value="Cin" style="text;html=1;align=center;verticalAlign=middle;resizable=0;points=[];autosize=1;strokeColor=none;fillColor=none;" parent="1" vertex="1">
          <mxGeometry x="355" y="740" width="40" height="30" as="geometry" />
        </mxCell>
        <mxCell id="y96da0rpGYS-JTHUumgM-60" value="~Cin" style="text;html=1;align=center;verticalAlign=middle;resizable=0;points=[];autosize=1;strokeColor=none;fillColor=none;" parent="1" vertex="1">
          <mxGeometry x="350" y="948" width="50" height="30" as="geometry" />
        </mxCell>
        <mxCell id="y96da0rpGYS-JTHUumgM-73" style="edgeStyle=orthogonalEdgeStyle;rounded=0;orthogonalLoop=1;jettySize=auto;html=1;exitX=1;exitY=0.5;exitDx=0;exitDy=0;entryX=0;entryY=0.5;entryDx=0;entryDy=0;" parent="1" source="y96da0rpGYS-JTHUumgM-61" target="y96da0rpGYS-JTHUumgM-22" edge="1">
          <mxGeometry relative="1" as="geometry" />
        </mxCell>
        <mxCell id="y96da0rpGYS-JTHUumgM-61" value="" style="ellipse;whiteSpace=wrap;html=1;aspect=fixed;" parent="1" vertex="1">
          <mxGeometry x="250" y="850" width="20" height="20" as="geometry" />
        </mxCell>
        <mxCell id="y96da0rpGYS-JTHUumgM-66" value="B" style="text;html=1;align=center;verticalAlign=middle;resizable=0;points=[];autosize=1;strokeColor=none;fillColor=none;" parent="1" vertex="1">
          <mxGeometry x="90" y="695" width="30" height="30" as="geometry" />
        </mxCell>
        <mxCell id="y96da0rpGYS-JTHUumgM-68" value="0" style="text;html=1;align=center;verticalAlign=middle;resizable=0;points=[];autosize=1;strokeColor=none;fillColor=none;" parent="1" vertex="1">
          <mxGeometry x="90" y="1005" width="30" height="30" as="geometry" />
        </mxCell>
        <mxCell id="y96da0rpGYS-JTHUumgM-70" value="~A" style="text;html=1;align=center;verticalAlign=middle;resizable=0;points=[];autosize=1;strokeColor=none;fillColor=none;" parent="1" vertex="1">
          <mxGeometry x="160" y="418" width="40" height="30" as="geometry" />
        </mxCell>
        <mxCell id="y96da0rpGYS-JTHUumgM-72" value="A" style="text;html=1;align=center;verticalAlign=middle;resizable=0;points=[];autosize=1;strokeColor=none;fillColor=none;" parent="1" vertex="1">
          <mxGeometry x="165" y="558" width="30" height="30" as="geometry" />
        </mxCell>
        <mxCell id="y96da0rpGYS-JTHUumgM-75" value="~A" style="text;html=1;align=center;verticalAlign=middle;resizable=0;points=[];autosize=1;strokeColor=none;fillColor=none;" parent="1" vertex="1">
          <mxGeometry x="170" y="620" width="40" height="30" as="geometry" />
        </mxCell>
        <mxCell id="y96da0rpGYS-JTHUumgM-77" value="A" style="text;html=1;align=center;verticalAlign=middle;resizable=0;points=[];autosize=1;strokeColor=none;fillColor=none;" parent="1" vertex="1">
          <mxGeometry x="180" y="770" width="30" height="30" as="geometry" />
        </mxCell>
        <mxCell id="y96da0rpGYS-JTHUumgM-79" value="A" style="text;html=1;align=center;verticalAlign=middle;resizable=0;points=[];autosize=1;strokeColor=none;fillColor=none;" parent="1" vertex="1">
          <mxGeometry x="190" y="918" width="30" height="30" as="geometry" />
        </mxCell>
        <mxCell id="y96da0rpGYS-JTHUumgM-80" value="~A" style="text;html=1;align=center;verticalAlign=middle;resizable=0;points=[];autosize=1;strokeColor=none;fillColor=none;" parent="1" vertex="1">
          <mxGeometry x="185" y="1090" width="40" height="30" as="geometry" />
        </mxCell>
      </root>
    </mxGraphModel>
  </diagram>
  <diagram id="m72m1scSfj1nmwMr1Qjj" name="S">
    <mxGraphModel dx="1434" dy="844" grid="1" gridSize="10" guides="1" tooltips="1" connect="1" arrows="1" fold="1" page="1" pageScale="1" pageWidth="850" pageHeight="1100" math="0" shadow="0">
      <root>
        <mxCell id="0" />
        <mxCell id="1" parent="0" />
        <mxCell id="mXTd1jhWbgFcD-7JHZxz-1" value="" style="triangle;whiteSpace=wrap;html=1;" vertex="1" parent="1">
          <mxGeometry x="320" y="300" width="60" height="80" as="geometry" />
        </mxCell>
        <mxCell id="mXTd1jhWbgFcD-7JHZxz-2" style="edgeStyle=orthogonalEdgeStyle;rounded=0;orthogonalLoop=1;jettySize=auto;html=1;exitX=0.5;exitY=0;exitDx=0;exitDy=0;" edge="1" parent="1" source="mXTd1jhWbgFcD-7JHZxz-4">
          <mxGeometry relative="1" as="geometry">
            <mxPoint x="350.1428571428571" y="400" as="targetPoint" />
          </mxGeometry>
        </mxCell>
        <mxCell id="mXTd1jhWbgFcD-7JHZxz-3" style="edgeStyle=orthogonalEdgeStyle;rounded=0;orthogonalLoop=1;jettySize=auto;html=1;exitX=0;exitY=0.5;exitDx=0;exitDy=0;entryX=0.5;entryY=0;entryDx=0;entryDy=0;" edge="1" parent="1" source="mXTd1jhWbgFcD-7JHZxz-4" target="mXTd1jhWbgFcD-7JHZxz-34">
          <mxGeometry relative="1" as="geometry" />
        </mxCell>
        <mxCell id="mXTd1jhWbgFcD-7JHZxz-4" value="" style="triangle;whiteSpace=wrap;html=1;direction=west;" vertex="1" parent="1">
          <mxGeometry x="320" y="300" width="60" height="80" as="geometry" />
        </mxCell>
        <mxCell id="mXTd1jhWbgFcD-7JHZxz-5" style="edgeStyle=orthogonalEdgeStyle;rounded=0;orthogonalLoop=1;jettySize=auto;html=1;exitX=0.5;exitY=0;exitDx=0;exitDy=0;" edge="1" parent="1" source="mXTd1jhWbgFcD-7JHZxz-6">
          <mxGeometry relative="1" as="geometry">
            <mxPoint x="350.1428571428571" y="280" as="targetPoint" />
          </mxGeometry>
        </mxCell>
        <mxCell id="mXTd1jhWbgFcD-7JHZxz-6" value="" style="ellipse;whiteSpace=wrap;html=1;aspect=fixed;" vertex="1" parent="1">
          <mxGeometry x="345" y="310" width="10" height="10" as="geometry" />
        </mxCell>
        <mxCell id="mXTd1jhWbgFcD-7JHZxz-7" style="edgeStyle=orthogonalEdgeStyle;rounded=0;orthogonalLoop=1;jettySize=auto;html=1;exitX=0;exitY=0.5;exitDx=0;exitDy=0;" edge="1" parent="1" source="mXTd1jhWbgFcD-7JHZxz-8">
          <mxGeometry relative="1" as="geometry">
            <mxPoint x="70" y="239.71428571428578" as="targetPoint" />
          </mxGeometry>
        </mxCell>
        <mxCell id="mXTd1jhWbgFcD-7JHZxz-8" value="" style="triangle;whiteSpace=wrap;html=1;" vertex="1" parent="1">
          <mxGeometry x="140" y="200" width="60" height="80" as="geometry" />
        </mxCell>
        <mxCell id="mXTd1jhWbgFcD-7JHZxz-9" style="edgeStyle=orthogonalEdgeStyle;rounded=0;orthogonalLoop=1;jettySize=auto;html=1;exitX=0;exitY=0.5;exitDx=0;exitDy=0;entryX=0.5;entryY=0;entryDx=0;entryDy=0;" edge="1" parent="1" source="mXTd1jhWbgFcD-7JHZxz-10" target="mXTd1jhWbgFcD-7JHZxz-41">
          <mxGeometry relative="1" as="geometry" />
        </mxCell>
        <mxCell id="mXTd1jhWbgFcD-7JHZxz-10" value="" style="triangle;whiteSpace=wrap;html=1;direction=west;" vertex="1" parent="1">
          <mxGeometry x="140" y="200" width="60" height="80" as="geometry" />
        </mxCell>
        <mxCell id="mXTd1jhWbgFcD-7JHZxz-11" style="edgeStyle=orthogonalEdgeStyle;rounded=0;orthogonalLoop=1;jettySize=auto;html=1;exitX=0.5;exitY=0;exitDx=0;exitDy=0;" edge="1" parent="1" source="mXTd1jhWbgFcD-7JHZxz-12">
          <mxGeometry relative="1" as="geometry">
            <mxPoint x="169.5714285714289" y="160" as="targetPoint" />
          </mxGeometry>
        </mxCell>
        <mxCell id="mXTd1jhWbgFcD-7JHZxz-12" value="" style="ellipse;whiteSpace=wrap;html=1;aspect=fixed;" vertex="1" parent="1">
          <mxGeometry x="165" y="210" width="10" height="10" as="geometry" />
        </mxCell>
        <mxCell id="mXTd1jhWbgFcD-7JHZxz-13" style="edgeStyle=orthogonalEdgeStyle;rounded=0;orthogonalLoop=1;jettySize=auto;html=1;exitX=0;exitY=0.5;exitDx=0;exitDy=0;" edge="1" parent="1" source="mXTd1jhWbgFcD-7JHZxz-14">
          <mxGeometry relative="1" as="geometry">
            <mxPoint x="90" y="500.28571428571433" as="targetPoint" />
          </mxGeometry>
        </mxCell>
        <mxCell id="mXTd1jhWbgFcD-7JHZxz-14" value="" style="triangle;whiteSpace=wrap;html=1;" vertex="1" parent="1">
          <mxGeometry x="150" y="460" width="60" height="80" as="geometry" />
        </mxCell>
        <mxCell id="mXTd1jhWbgFcD-7JHZxz-15" style="edgeStyle=orthogonalEdgeStyle;rounded=0;orthogonalLoop=1;jettySize=auto;html=1;exitX=0;exitY=0.5;exitDx=0;exitDy=0;entryX=0.5;entryY=1;entryDx=0;entryDy=0;" edge="1" parent="1" source="mXTd1jhWbgFcD-7JHZxz-17" target="mXTd1jhWbgFcD-7JHZxz-41">
          <mxGeometry relative="1" as="geometry" />
        </mxCell>
        <mxCell id="mXTd1jhWbgFcD-7JHZxz-16" style="edgeStyle=orthogonalEdgeStyle;rounded=0;orthogonalLoop=1;jettySize=auto;html=1;exitX=0.5;exitY=0;exitDx=0;exitDy=0;" edge="1" parent="1" source="mXTd1jhWbgFcD-7JHZxz-17">
          <mxGeometry relative="1" as="geometry">
            <mxPoint x="180" y="560" as="targetPoint" />
          </mxGeometry>
        </mxCell>
        <mxCell id="mXTd1jhWbgFcD-7JHZxz-17" value="" style="triangle;whiteSpace=wrap;html=1;direction=west;" vertex="1" parent="1">
          <mxGeometry x="150" y="460" width="60" height="80" as="geometry" />
        </mxCell>
        <mxCell id="mXTd1jhWbgFcD-7JHZxz-18" style="edgeStyle=orthogonalEdgeStyle;rounded=0;orthogonalLoop=1;jettySize=auto;html=1;exitX=0.5;exitY=0;exitDx=0;exitDy=0;" edge="1" parent="1" source="mXTd1jhWbgFcD-7JHZxz-19">
          <mxGeometry relative="1" as="geometry">
            <mxPoint x="180" y="440" as="targetPoint" />
          </mxGeometry>
        </mxCell>
        <mxCell id="mXTd1jhWbgFcD-7JHZxz-19" value="" style="ellipse;whiteSpace=wrap;html=1;aspect=fixed;" vertex="1" parent="1">
          <mxGeometry x="175" y="470" width="10" height="10" as="geometry" />
        </mxCell>
        <mxCell id="mXTd1jhWbgFcD-7JHZxz-20" style="edgeStyle=orthogonalEdgeStyle;rounded=0;orthogonalLoop=1;jettySize=auto;html=1;exitX=0.5;exitY=1;exitDx=0;exitDy=0;" edge="1" parent="1" source="mXTd1jhWbgFcD-7JHZxz-21">
          <mxGeometry relative="1" as="geometry">
            <mxPoint x="375" y="1000" as="targetPoint" />
          </mxGeometry>
        </mxCell>
        <mxCell id="mXTd1jhWbgFcD-7JHZxz-21" value="" style="triangle;whiteSpace=wrap;html=1;" vertex="1" parent="1">
          <mxGeometry x="345" y="870" width="60" height="80" as="geometry" />
        </mxCell>
        <mxCell id="mXTd1jhWbgFcD-7JHZxz-22" style="edgeStyle=orthogonalEdgeStyle;rounded=0;orthogonalLoop=1;jettySize=auto;html=1;exitX=0;exitY=0.5;exitDx=0;exitDy=0;entryX=0.5;entryY=1;entryDx=0;entryDy=0;" edge="1" parent="1" source="mXTd1jhWbgFcD-7JHZxz-23" target="mXTd1jhWbgFcD-7JHZxz-34">
          <mxGeometry relative="1" as="geometry" />
        </mxCell>
        <mxCell id="mXTd1jhWbgFcD-7JHZxz-23" value="" style="triangle;whiteSpace=wrap;html=1;direction=west;" vertex="1" parent="1">
          <mxGeometry x="345" y="870" width="60" height="80" as="geometry" />
        </mxCell>
        <mxCell id="mXTd1jhWbgFcD-7JHZxz-24" style="edgeStyle=orthogonalEdgeStyle;rounded=0;orthogonalLoop=1;jettySize=auto;html=1;exitX=0.5;exitY=0;exitDx=0;exitDy=0;" edge="1" parent="1" source="mXTd1jhWbgFcD-7JHZxz-25">
          <mxGeometry relative="1" as="geometry">
            <mxPoint x="375" y="820" as="targetPoint" />
          </mxGeometry>
        </mxCell>
        <mxCell id="mXTd1jhWbgFcD-7JHZxz-25" value="" style="ellipse;whiteSpace=wrap;html=1;aspect=fixed;" vertex="1" parent="1">
          <mxGeometry x="370" y="880" width="10" height="10" as="geometry" />
        </mxCell>
        <mxCell id="mXTd1jhWbgFcD-7JHZxz-26" value="" style="triangle;whiteSpace=wrap;html=1;" vertex="1" parent="1">
          <mxGeometry x="175" y="1030" width="60" height="80" as="geometry" />
        </mxCell>
        <mxCell id="mXTd1jhWbgFcD-7JHZxz-27" style="edgeStyle=orthogonalEdgeStyle;rounded=0;orthogonalLoop=1;jettySize=auto;html=1;exitX=0;exitY=0.5;exitDx=0;exitDy=0;entryX=0.5;entryY=1;entryDx=0;entryDy=0;" edge="1" parent="1" source="mXTd1jhWbgFcD-7JHZxz-30" target="mXTd1jhWbgFcD-7JHZxz-55">
          <mxGeometry relative="1" as="geometry" />
        </mxCell>
        <mxCell id="mXTd1jhWbgFcD-7JHZxz-28" style="edgeStyle=orthogonalEdgeStyle;rounded=0;orthogonalLoop=1;jettySize=auto;html=1;exitX=1;exitY=0.5;exitDx=0;exitDy=0;" edge="1" parent="1" source="mXTd1jhWbgFcD-7JHZxz-30">
          <mxGeometry relative="1" as="geometry">
            <mxPoint x="120" y="1070" as="targetPoint" />
          </mxGeometry>
        </mxCell>
        <mxCell id="mXTd1jhWbgFcD-7JHZxz-29" style="edgeStyle=orthogonalEdgeStyle;rounded=0;orthogonalLoop=1;jettySize=auto;html=1;exitX=0.5;exitY=0;exitDx=0;exitDy=0;" edge="1" parent="1" source="mXTd1jhWbgFcD-7JHZxz-30">
          <mxGeometry relative="1" as="geometry">
            <mxPoint x="205" y="1140" as="targetPoint" />
          </mxGeometry>
        </mxCell>
        <mxCell id="mXTd1jhWbgFcD-7JHZxz-30" value="" style="triangle;whiteSpace=wrap;html=1;direction=west;" vertex="1" parent="1">
          <mxGeometry x="175" y="1030" width="60" height="80" as="geometry" />
        </mxCell>
        <mxCell id="mXTd1jhWbgFcD-7JHZxz-31" style="edgeStyle=orthogonalEdgeStyle;rounded=0;orthogonalLoop=1;jettySize=auto;html=1;exitX=0.5;exitY=0;exitDx=0;exitDy=0;" edge="1" parent="1" source="mXTd1jhWbgFcD-7JHZxz-32">
          <mxGeometry relative="1" as="geometry">
            <mxPoint x="205" y="990" as="targetPoint" />
          </mxGeometry>
        </mxCell>
        <mxCell id="mXTd1jhWbgFcD-7JHZxz-32" value="" style="ellipse;whiteSpace=wrap;html=1;aspect=fixed;" vertex="1" parent="1">
          <mxGeometry x="200" y="1040" width="10" height="10" as="geometry" />
        </mxCell>
        <mxCell id="mXTd1jhWbgFcD-7JHZxz-33" style="edgeStyle=orthogonalEdgeStyle;rounded=0;orthogonalLoop=1;jettySize=auto;html=1;exitX=1;exitY=0.5;exitDx=0;exitDy=0;" edge="1" parent="1" source="mXTd1jhWbgFcD-7JHZxz-34">
          <mxGeometry relative="1" as="geometry">
            <mxPoint x="650" y="595.4285714285716" as="targetPoint" />
          </mxGeometry>
        </mxCell>
        <mxCell id="mXTd1jhWbgFcD-7JHZxz-34" value="" style="ellipse;whiteSpace=wrap;html=1;aspect=fixed;" vertex="1" parent="1">
          <mxGeometry x="550" y="570" width="50" height="50" as="geometry" />
        </mxCell>
        <mxCell id="mXTd1jhWbgFcD-7JHZxz-35" value="S" style="text;html=1;align=center;verticalAlign=middle;resizable=0;points=[];autosize=1;strokeColor=none;fillColor=none;" vertex="1" parent="1">
          <mxGeometry x="655" y="578" width="30" height="30" as="geometry" />
        </mxCell>
        <mxCell id="mXTd1jhWbgFcD-7JHZxz-36" value="B" style="text;html=1;align=center;verticalAlign=middle;resizable=0;points=[];autosize=1;strokeColor=none;fillColor=none;" vertex="1" parent="1">
          <mxGeometry x="40" y="225" width="30" height="30" as="geometry" />
        </mxCell>
        <mxCell id="mXTd1jhWbgFcD-7JHZxz-37" value="~A" style="text;html=1;align=center;verticalAlign=middle;resizable=0;points=[];autosize=1;strokeColor=none;fillColor=none;" vertex="1" parent="1">
          <mxGeometry x="150" y="138" width="40" height="30" as="geometry" />
        </mxCell>
        <mxCell id="mXTd1jhWbgFcD-7JHZxz-38" value="A" style="text;html=1;align=center;verticalAlign=middle;resizable=0;points=[];autosize=1;strokeColor=none;fillColor=none;rotation=0;" vertex="1" parent="1">
          <mxGeometry x="155" y="290" width="30" height="30" as="geometry" />
        </mxCell>
        <mxCell id="mXTd1jhWbgFcD-7JHZxz-39" style="edgeStyle=orthogonalEdgeStyle;rounded=0;orthogonalLoop=1;jettySize=auto;html=1;exitX=0.5;exitY=1;exitDx=0;exitDy=0;entryX=0.504;entryY=-0.057;entryDx=0;entryDy=0;entryPerimeter=0;" edge="1" parent="1" source="mXTd1jhWbgFcD-7JHZxz-8" target="mXTd1jhWbgFcD-7JHZxz-38">
          <mxGeometry relative="1" as="geometry" />
        </mxCell>
        <mxCell id="mXTd1jhWbgFcD-7JHZxz-40" style="edgeStyle=orthogonalEdgeStyle;rounded=0;orthogonalLoop=1;jettySize=auto;html=1;exitX=1;exitY=0.5;exitDx=0;exitDy=0;entryX=1;entryY=0.5;entryDx=0;entryDy=0;" edge="1" parent="1" source="mXTd1jhWbgFcD-7JHZxz-41" target="mXTd1jhWbgFcD-7JHZxz-4">
          <mxGeometry relative="1" as="geometry" />
        </mxCell>
        <mxCell id="mXTd1jhWbgFcD-7JHZxz-41" value="" style="ellipse;whiteSpace=wrap;html=1;aspect=fixed;" vertex="1" parent="1">
          <mxGeometry x="230" y="330" width="20" height="20" as="geometry" />
        </mxCell>
        <mxCell id="mXTd1jhWbgFcD-7JHZxz-42" value="~B" style="text;html=1;align=center;verticalAlign=middle;resizable=0;points=[];autosize=1;strokeColor=none;fillColor=none;" vertex="1" parent="1">
          <mxGeometry x="55" y="485" width="40" height="30" as="geometry" />
        </mxCell>
        <mxCell id="mXTd1jhWbgFcD-7JHZxz-43" value="~Cin" style="text;html=1;align=center;verticalAlign=middle;resizable=0;points=[];autosize=1;strokeColor=none;fillColor=none;" vertex="1" parent="1">
          <mxGeometry x="325" y="258" width="50" height="30" as="geometry" />
        </mxCell>
        <mxCell id="mXTd1jhWbgFcD-7JHZxz-44" value="Cin" style="text;html=1;align=center;verticalAlign=middle;resizable=0;points=[];autosize=1;strokeColor=none;fillColor=none;" vertex="1" parent="1">
          <mxGeometry x="330" y="398" width="40" height="30" as="geometry" />
        </mxCell>
        <mxCell id="mXTd1jhWbgFcD-7JHZxz-45" value="" style="triangle;whiteSpace=wrap;html=1;" vertex="1" parent="1">
          <mxGeometry x="165" y="720" width="60" height="80" as="geometry" />
        </mxCell>
        <mxCell id="mXTd1jhWbgFcD-7JHZxz-46" style="edgeStyle=orthogonalEdgeStyle;rounded=0;orthogonalLoop=1;jettySize=auto;html=1;exitX=0;exitY=0.5;exitDx=0;exitDy=0;entryX=0.5;entryY=0;entryDx=0;entryDy=0;" edge="1" parent="1" source="mXTd1jhWbgFcD-7JHZxz-49" target="mXTd1jhWbgFcD-7JHZxz-55">
          <mxGeometry relative="1" as="geometry" />
        </mxCell>
        <mxCell id="mXTd1jhWbgFcD-7JHZxz-47" style="edgeStyle=orthogonalEdgeStyle;rounded=0;orthogonalLoop=1;jettySize=auto;html=1;exitX=1;exitY=0.5;exitDx=0;exitDy=0;" edge="1" parent="1" source="mXTd1jhWbgFcD-7JHZxz-49">
          <mxGeometry relative="1" as="geometry">
            <mxPoint x="120" y="760" as="targetPoint" />
          </mxGeometry>
        </mxCell>
        <mxCell id="mXTd1jhWbgFcD-7JHZxz-48" style="edgeStyle=orthogonalEdgeStyle;rounded=0;orthogonalLoop=1;jettySize=auto;html=1;exitX=0.5;exitY=0;exitDx=0;exitDy=0;" edge="1" parent="1" source="mXTd1jhWbgFcD-7JHZxz-49">
          <mxGeometry relative="1" as="geometry">
            <mxPoint x="195" y="820" as="targetPoint" />
          </mxGeometry>
        </mxCell>
        <mxCell id="mXTd1jhWbgFcD-7JHZxz-49" value="" style="triangle;whiteSpace=wrap;html=1;direction=west;" vertex="1" parent="1">
          <mxGeometry x="165" y="720" width="60" height="80" as="geometry" />
        </mxCell>
        <mxCell id="mXTd1jhWbgFcD-7JHZxz-50" style="edgeStyle=orthogonalEdgeStyle;rounded=0;orthogonalLoop=1;jettySize=auto;html=1;exitX=0.5;exitY=0;exitDx=0;exitDy=0;" edge="1" parent="1" source="mXTd1jhWbgFcD-7JHZxz-51">
          <mxGeometry relative="1" as="geometry">
            <mxPoint x="195" y="690" as="targetPoint" />
          </mxGeometry>
        </mxCell>
        <mxCell id="mXTd1jhWbgFcD-7JHZxz-51" value="" style="ellipse;whiteSpace=wrap;html=1;aspect=fixed;" vertex="1" parent="1">
          <mxGeometry x="190" y="730" width="10" height="10" as="geometry" />
        </mxCell>
        <mxCell id="mXTd1jhWbgFcD-7JHZxz-52" value="Cin" style="text;html=1;align=center;verticalAlign=middle;resizable=0;points=[];autosize=1;strokeColor=none;fillColor=none;" vertex="1" parent="1">
          <mxGeometry x="355" y="790" width="40" height="30" as="geometry" />
        </mxCell>
        <mxCell id="mXTd1jhWbgFcD-7JHZxz-53" value="~Cin" style="text;html=1;align=center;verticalAlign=middle;resizable=0;points=[];autosize=1;strokeColor=none;fillColor=none;" vertex="1" parent="1">
          <mxGeometry x="350" y="998" width="50" height="30" as="geometry" />
        </mxCell>
        <mxCell id="mXTd1jhWbgFcD-7JHZxz-54" style="edgeStyle=orthogonalEdgeStyle;rounded=0;orthogonalLoop=1;jettySize=auto;html=1;exitX=1;exitY=0.5;exitDx=0;exitDy=0;entryX=0;entryY=0.5;entryDx=0;entryDy=0;" edge="1" parent="1" source="mXTd1jhWbgFcD-7JHZxz-55" target="mXTd1jhWbgFcD-7JHZxz-21">
          <mxGeometry relative="1" as="geometry" />
        </mxCell>
        <mxCell id="mXTd1jhWbgFcD-7JHZxz-55" value="" style="ellipse;whiteSpace=wrap;html=1;aspect=fixed;" vertex="1" parent="1">
          <mxGeometry x="250" y="900" width="20" height="20" as="geometry" />
        </mxCell>
        <mxCell id="mXTd1jhWbgFcD-7JHZxz-56" value="B" style="text;html=1;align=center;verticalAlign=middle;resizable=0;points=[];autosize=1;strokeColor=none;fillColor=none;" vertex="1" parent="1">
          <mxGeometry x="90" y="745" width="30" height="30" as="geometry" />
        </mxCell>
        <mxCell id="mXTd1jhWbgFcD-7JHZxz-57" value="~B" style="text;html=1;align=center;verticalAlign=middle;resizable=0;points=[];autosize=1;strokeColor=none;fillColor=none;" vertex="1" parent="1">
          <mxGeometry x="85" y="1055" width="40" height="30" as="geometry" />
        </mxCell>
        <mxCell id="mXTd1jhWbgFcD-7JHZxz-58" value="A" style="text;html=1;align=center;verticalAlign=middle;resizable=0;points=[];autosize=1;strokeColor=none;fillColor=none;" vertex="1" parent="1">
          <mxGeometry x="165" y="418" width="30" height="30" as="geometry" />
        </mxCell>
        <mxCell id="mXTd1jhWbgFcD-7JHZxz-59" value="~A" style="text;html=1;align=center;verticalAlign=middle;resizable=0;points=[];autosize=1;strokeColor=none;fillColor=none;" vertex="1" parent="1">
          <mxGeometry x="160" y="558" width="40" height="30" as="geometry" />
        </mxCell>
        <mxCell id="mXTd1jhWbgFcD-7JHZxz-60" value="A" style="text;html=1;align=center;verticalAlign=middle;resizable=0;points=[];autosize=1;strokeColor=none;fillColor=none;" vertex="1" parent="1">
          <mxGeometry x="175" y="670" width="30" height="30" as="geometry" />
        </mxCell>
        <mxCell id="mXTd1jhWbgFcD-7JHZxz-61" value="~A" style="text;html=1;align=center;verticalAlign=middle;resizable=0;points=[];autosize=1;strokeColor=none;fillColor=none;" vertex="1" parent="1">
          <mxGeometry x="175" y="820" width="40" height="30" as="geometry" />
        </mxCell>
        <mxCell id="mXTd1jhWbgFcD-7JHZxz-62" value="~A" style="text;html=1;align=center;verticalAlign=middle;resizable=0;points=[];autosize=1;strokeColor=none;fillColor=none;" vertex="1" parent="1">
          <mxGeometry x="185" y="968" width="40" height="30" as="geometry" />
        </mxCell>
        <mxCell id="mXTd1jhWbgFcD-7JHZxz-63" value="A" style="text;html=1;align=center;verticalAlign=middle;resizable=0;points=[];autosize=1;strokeColor=none;fillColor=none;" vertex="1" parent="1">
          <mxGeometry x="190" y="1140" width="30" height="30" as="geometry" />
        </mxCell>
      </root>
    </mxGraphModel>
  </diagram>
</mxfile>
